<?xml version="1.0" standalone="no"?>
<!DOCTYPE svg PUBLIC "-//W3C//DTD SVG 20010904//EN"
 "http://www.w3.org/TR/2001/REC-SVG-20010904/DTD/svg10.dtd">
<svg version="1.0" xmlns="http://www.w3.org/2000/svg"
 width="24.000000pt" height="24.000000pt" viewBox="0 0 24.000000 24.000000"
 preserveAspectRatio="xMidYMid meet">

<g transform="translate(0.000000,24.000000) scale(0.100000,-0.100000)"
fill="#000000" stroke="none">
<path d="M59 181 c-21 -22 -29 -39 -29 -66 0 -51 44 -95 95 -95 51 0 95 44 95
95 0 51 -44 95 -95 95 -27 0 -44 -8 -66 -29z m98 -63 c-14 -24 -28 -43 -32
-43 -4 0 -18 19 -32 43 l-25 42 57 0 57 0 -25 -42z"/>
<path d="M105 120 c9 -16 18 -30 20 -30 2 0 11 14 20 30 l16 30 -36 0 -36 0
16 -30z"/>
</g>
</svg>
